<?xml version="1.0" encoding="UTF-8" standalone="no"?>
<!-- Created with Inkscape (http://www.inkscape.org/) -->

<svg
   width="16"
   height="16"
   viewBox="0 0 4.2333332 4.2333335"
   version="1.1"
   id="svg172"
   inkscape:version="1.1 (c68e22c387, 2021-05-23)"
   sodipodi:docname="cz.pervoj.valdo-gtk-symbolic.svg"
   xmlns:inkscape="http://www.inkscape.org/namespaces/inkscape"
   xmlns:sodipodi="http://sodipodi.sourceforge.net/DTD/sodipodi-0.dtd"
   xmlns="http://www.w3.org/2000/svg"
   xmlns:svg="http://www.w3.org/2000/svg">
  <sodipodi:namedview
     id="namedview174"
     pagecolor="#ffffff"
     bordercolor="#666666"
     borderopacity="1.0"
     inkscape:pageshadow="2"
     inkscape:pageopacity="0.0"
     inkscape:pagecheckerboard="0"
     inkscape:document-units="px"
     showgrid="false"
     units="px"
     inkscape:zoom="22.207183"
     inkscape:cx="6.822117"
     inkscape:cy="7.9253637"
     inkscape:window-width="1366"
     inkscape:window-height="731"
     inkscape:window-x="1680"
     inkscape:window-y="282"
     inkscape:window-maximized="1"
     inkscape:current-layer="layer1" />
  <defs
     id="defs169" />
  <g
     inkscape:label="Vrstva 1"
     inkscape:groupmode="layer"
     id="layer1">
    <path
       id="path474-3"
       style="display:inline;fill:#000000;stroke-width:0.0432898;enable-background:new"
       d="M 3.693252,2.11667 A 1.5765819,1.5765973 0 0 1 2.116669,3.69327 1.5765819,1.5765973 0 0 1 0.540086,2.11667 1.5765819,1.5765973 0 0 1 2.116669,0.54007 1.5765819,1.5765973 0 0 1 3.693252,2.11667 Z M 0.427069,0.81284 0.812895,0.42702 c 0.06052,-0.0605 0.157962,-0.0605 0.218482,0 l 2.774934,2.77494 c 0.06052,0.0605 0.06052,0.15796 0,0.21848 l -0.38582,0.38582 c -0.06052,0.0605 -0.157967,0.0605 -0.218485,0 L 0.427069,1.03133 c -0.06052,-0.0605 -0.06052,-0.15797 0,-0.21849 z M 3.420467,0.42705 3.80629,0.81287 c 0.06052,0.0605 0.06052,0.15797 0,0.21849 L 1.031356,3.80629 c -0.06052,0.0605 -0.157964,0.0605 -0.218485,0 L 0.427048,3.42047 c -0.06052,-0.0605 -0.06052,-0.15797 0,-0.21849 L 3.201985,0.42705 c 0.06052,-0.0605 0.157961,-0.0605 0.218482,0 z M 0,2.38945 V 1.84381 C 0,1.75821 0.0689,1.68932 0.154493,1.68932 H 4.07884 c 0.08559,0 0.154493,0.0689 0.154493,0.15449 v 0.54564 c 0,0.0856 -0.06891,0.15449 -0.154493,0.15449 H 0.154493 C 0.068903,2.54394 0,2.47504 0,2.38945 Z M 1.843852,0 h 0.545637 c 0.08559,0 0.15449,0.0689 0.15449,0.15449 v 3.92435 c 0,0.0856 -0.0689,0.15449 -0.15449,0.15449 H 1.843852 c -0.08559,0 -0.15449,-0.0689 -0.15449,-0.15449 V 0.15449 C 1.689362,0.06889 1.758262,0 1.843852,0 Z" />
  </g>
</svg>
