<?xml version="1.0" encoding="UTF-8" standalone="no"?>
<svg
   height="128px"
   viewBox="0 0 128 128"
   width="128px"
   version="1.1"
   id="svg65"
   sodipodi:docname="cz.pervoj.valdo-gtk.Devel.svg"
   inkscape:version="1.1 (c68e22c387, 2021-05-23)"
   xmlns:inkscape="http://www.inkscape.org/namespaces/inkscape"
   xmlns:sodipodi="http://sodipodi.sourceforge.net/DTD/sodipodi-0.dtd"
   xmlns="http://www.w3.org/2000/svg"
   xmlns:svg="http://www.w3.org/2000/svg">
  <defs
     id="defs69" />
  <sodipodi:namedview
     id="namedview67"
     pagecolor="#ffffff"
     bordercolor="#666666"
     borderopacity="1.0"
     inkscape:pageshadow="2"
     inkscape:pageopacity="0.0"
     inkscape:pagecheckerboard="0"
     showgrid="false"
     inkscape:zoom="3.0429688"
     inkscape:cx="76.734275"
     inkscape:cy="51.265725"
     inkscape:window-width="1366"
     inkscape:window-height="731"
     inkscape:window-x="1680"
     inkscape:window-y="282"
     inkscape:window-maximized="1"
     inkscape:current-layer="svg65" />
  <radialGradient
     id="a"
     cx="64.868744"
     cy="38.506882"
     gradientUnits="userSpaceOnUse"
     r="38.363373">
    <stop
       offset="0"
       stop-color="#f9f06b"
       id="stop2" />
    <stop
       offset="1"
       stop-color="#f6d32d"
       id="stop4" />
  </radialGradient>
  <clipPath
     id="b">
    <rect
       height="128"
       width="128"
       id="rect7" />
  </clipPath>
  <clipPath
     id="c">
    <rect
       height="128"
       width="128"
       id="rect10" />
  </clipPath>
  <filter
     id="d"
     height="1"
     width="1"
     x="0"
     y="0">
    <feColorMatrix
       in="SourceGraphic"
       type="matrix"
       values="0 0 0 0 1 0 0 0 0 1 0 0 0 0 1 0 0 0 1 0"
       id="feColorMatrix13" />
  </filter>
  <mask
     id="e">
    <g
       clip-path="url(#c)"
       filter="url(#d)"
       id="g28">
      <g
         clip-path="url(#b)"
         id="g26">
        <path
           d="m 22.886719 32.273438 l 9.386719 -9.386719 c 1.472656 -1.472657 3.84375 -1.472657 5.316406 0 l 67.523437 67.523437 c 1.472657 1.472656 1.472657 3.84375 0 5.316406 l -9.386719 9.386719 c -1.472656 1.472657 -3.84375 1.472657 -5.316406 0 l -67.523437 -67.523437 c -1.472657 -1.472656 -1.472657 -3.84375 0 -5.316406 z m 72.839843 -9.386719 l 9.386719 9.390625 c 1.472657 1.472656 1.472657 3.84375 0 5.316406 l -67.523437 67.519531 c -1.472656 1.472657 -3.84375 1.472657 -5.316406 0 l -9.386719 -9.386719 c -1.472657 -1.472656 -1.472657 -3.84375 0 -5.316406 l 67.523437 -67.523437 c 1.472656 -1.472657 3.84375 -1.472657 5.316406 0 z m -83.230468 47.75 v -13.273438 c 0 -2.085937 1.675781 -3.761719 3.757812 -3.761719 h 95.492188 c 2.082031 0 3.757812 1.675782 3.757812 3.761719 v 13.273438 c 0 2.085937 -1.675781 3.761719 -3.757812 3.761719 h -95.492188 c -2.082031 0 -3.757812 -1.675782 -3.757812 -3.761719 z m 44.867187 -58.140625 h 13.273438 c 2.085937 0 3.761719 1.675781 3.761719 3.757812 v 95.492188 c 0 2.082031 -1.675782 3.757812 -3.761719 3.757812 h -13.273438 c -2.085937 0 -3.761719 -1.675781 -3.761719 -3.757812 v -95.492188 c 0 -2.082031 1.675782 -3.757812 3.761719 -3.757812 z m 0 0"
           fill="#f5c211"
           id="path16" />
        <path
           d="m 102.363281 64 c 0 21.1875 -17.175781 38.363281 -38.363281 38.363281 s -38.363281 -17.175781 -38.363281 -38.363281 s 17.175781 -38.363281 38.363281 -38.363281 s 38.363281 17.175781 38.363281 38.363281 z m 0 0"
           fill="url(#a)"
           id="path18" />
        <path
           d="m 57.847656 48.734375 c -2.972656 1.128906 -5.273437 2.886719 -6.90625 5.273437 c -1.632812 2.34375 -2.449218 5.230469 -2.449218 8.664063 c 0 1.546875 0.144531 2.636719 0.4375 3.265625 c 0.292968 0.585938 0.441406 0.917969 0.441406 1.003906 c -2.261719 0 -3.957032 -0.460937 -5.085938 -1.382812 c -1.089844 -0.960938 -1.632812 -2.53125 -1.632812 -4.707032 c 0 -2.679687 1.089844 -5.273437 3.265625 -7.785156 c 2.21875 -2.554687 5.042969 -4.605468 8.476562 -6.15625 c 3.429688 -1.589844 6.863281 -2.382812 10.296875 -2.382812 c 0.585938 0 1.421875 0.039062 2.511719 0.125 l 0.5625 38.613281 l 13.1875 -38.425781 h 4.394531 l -17.457031 46.777344 h -9.039063 z m 0 0"
           fill-opacity="0.197474"
           id="path20" />
        <path
           d="m 49.371094 62.941406 v 1.855469 l -3.445313 -2.679687 z m 35.976562 -22.101562 v 1.855468 l -1.660156 0.511719 z m -27.5 5.75 c -2.972656 1.128906 -5.273437 2.886718 -6.90625 5.273437 c -1.632812 2.34375 -2.449218 5.234375 -2.449218 8.664063 c 0 1.550781 0.144531 2.636718 0.4375 3.265625 c 0.292968 0.585937 0.441406 0.921875 0.441406 1.003906 c -2.261719 0 -3.957032 -0.457031 -5.085938 -1.378906 c -1.089844 -0.964844 -1.632812 -2.535157 -1.632812 -4.710938 c 0 -2.679687 1.089844 -5.273437 3.265625 -7.785156 c 2.21875 -2.554687 5.042969 -4.605469 8.476562 -6.152344 c 3.429688 -1.589843 6.863281 -2.386719 10.296875 -2.386719 c 0.585938 0 1.421875 0.042969 2.511719 0.125 l 0.5625 38.617188 l 13.1875 -38.429688 h 4.394531 l -17.457031 46.777344 h -9.039063 z m 0 0"
           fill="#613583"
           id="path22" />
        <path
           d="m 57.847656 44.734375 c -2.972656 1.128906 -5.273437 2.886719 -6.90625 5.273437 c -1.632812 2.34375 -2.449218 5.230469 -2.449218 8.664063 c 0 1.546875 0.144531 2.636719 0.4375 3.265625 c 0.292968 0.585938 0.441406 0.917969 0.441406 1.003906 c -2.261719 0 -3.957032 -0.460937 -5.085938 -1.382812 c -1.089844 -0.960938 -1.632812 -2.53125 -1.632812 -4.707032 c 0 -2.679687 1.089844 -5.273437 3.265625 -7.785156 c 2.21875 -2.554687 5.042969 -4.605468 8.476562 -6.15625 c 3.429688 -1.589844 6.863281 -2.382812 10.296875 -2.382812 c 0.585938 0 1.421875 0.039062 2.511719 0.125 l 0.5625 38.613281 l 13.1875 -38.425781 h 4.394531 l -17.457031 46.777344 h -9.039063 z m 0 0"
           fill="#813d9c"
           id="path24" />
      </g>
    </g>
  </mask>
  <mask
     id="f">
    <g
       filter="url(#d)"
       id="g33">
      <rect
         fill-opacity="0.8"
         height="128"
         width="128"
         id="rect31" />
    </g>
  </mask>
  <linearGradient
     id="g"
     gradientTransform="matrix(0 0.37 -0.98462 0 295.38501 -30.360001)"
     gradientUnits="userSpaceOnUse"
     x1="300"
     x2="428"
     y1="235"
     y2="235">
    <stop
       offset="0"
       stop-color="#f9f06b"
       id="stop36" />
    <stop
       offset="1"
       stop-color="#f5c211"
       id="stop38" />
  </linearGradient>
  <clipPath
     id="h">
    <rect
       height="128"
       width="128"
       id="rect41" />
  </clipPath>
  <clipPath
     id="i">
    <rect
       height="128"
       width="128"
       id="rect44" />
  </clipPath>
  <path
     d="m 22.886719 32.273438 l 9.386719 -9.386719 c 1.472656 -1.472657 3.84375 -1.472657 5.316406 0 l 67.523437 67.523437 c 1.472657 1.472656 1.472657 3.84375 0 5.316406 l -9.386719 9.386719 c -1.472656 1.472657 -3.84375 1.472657 -5.316406 0 l -67.523437 -67.523437 c -1.472657 -1.472656 -1.472657 -3.84375 0 -5.316406 z m 72.839843 -9.386719 l 9.386719 9.390625 c 1.472657 1.472656 1.472657 3.84375 0 5.316406 l -67.523437 67.519531 c -1.472656 1.472657 -3.84375 1.472657 -5.316406 0 l -9.386719 -9.386719 c -1.472657 -1.472656 -1.472657 -3.84375 0 -5.316406 l 67.523437 -67.523437 c 1.472656 -1.472657 3.84375 -1.472657 5.316406 0 z m -83.230468 47.75 v -13.273438 c 0 -2.085937 1.675781 -3.761719 3.757812 -3.761719 h 95.492188 c 2.082031 0 3.757812 1.675782 3.757812 3.761719 v 13.273438 c 0 2.085937 -1.675781 3.761719 -3.757812 3.761719 h -95.492188 c -2.082031 0 -3.757812 -1.675782 -3.757812 -3.761719 z m 44.867187 -58.140625 h 13.273438 c 2.085937 0 3.761719 1.675781 3.761719 3.757812 v 95.492188 c 0 2.082031 -1.675782 3.757812 -3.761719 3.757812 h -13.273438 c -2.085937 0 -3.761719 -1.675781 -3.761719 -3.757812 v -95.492188 c 0 -2.082031 1.675782 -3.757812 3.761719 -3.757812 z m 0 0"
     fill="#f5c211"
     id="path47" />
  <path
     d="m 102.363281 64 c 0 21.1875 -17.175781 38.363281 -38.363281 38.363281 s -38.363281 -17.175781 -38.363281 -38.363281 s 17.175781 -38.363281 38.363281 -38.363281 s 38.363281 17.175781 38.363281 38.363281 z m 0 0"
     fill="url(#a)"
     id="path49" />
  <g
     clip-path="url(#i)"
     mask="url(#e)"
     id="g63">
    <g
       clip-path="url(#h)"
       mask="url(#f)"
       id="g61">
      <path
         d="m 128 80.640625 v 47.359375 h -128 v -47.359375 z m 0 0"
         fill="url(#g)"
         id="path57" />
      <path
         d="m 13.308594 80.640625 l 47.355468 47.359375 h 21.214844 l -47.359375 -47.359375 z m 42.421875 0 l 47.363281 47.359375 h 21.214844 l -47.363282 -47.359375 z m 42.429687 0 l 29.839844 29.839844 v -21.210938 l -8.628906 -8.628906 z m -98.160156 7.90625 v 21.214844 l 18.238281 18.238281 h 21.214844 z m 0 0"
         id="path59" />
    </g>
  </g>
  <path
     d="m 57.847656 48.734375 c -2.972656 1.128906 -5.273437 2.886719 -6.90625 5.273437 c -1.632812 2.34375 -2.449218 5.230469 -2.449218 8.664063 c 0 1.546875 0.144531 2.636719 0.4375 3.265625 c 0.292968 0.585938 0.441406 0.917969 0.441406 1.003906 c -2.261719 0 -3.957032 -0.460937 -5.085938 -1.382812 c -1.089844 -0.960938 -1.632812 -2.53125 -1.632812 -4.707032 c 0 -2.679687 1.089844 -5.273437 3.265625 -7.785156 c 2.21875 -2.554687 5.042969 -4.605468 8.476562 -6.15625 c 3.429688 -1.589844 6.863281 -2.382812 10.296875 -2.382812 c 0.585938 0 1.421875 0.039062 2.511719 0.125 l 0.5625 38.613281 l 13.1875 -38.425781 h 4.394531 l -17.457031 46.777344 h -9.039063 z m 0 0"
     fill-opacity="0.197474"
     id="path51" />
  <path
     d="m 49.371094 62.941406 v 1.855469 l -3.445313 -2.679687 z m 35.976562 -22.101562 v 1.855468 l -1.660156 0.511719 z m -27.5 5.75 c -2.972656 1.128906 -5.273437 2.886718 -6.90625 5.273437 c -1.632812 2.34375 -2.449218 5.234375 -2.449218 8.664063 c 0 1.550781 0.144531 2.636718 0.4375 3.265625 c 0.292968 0.585937 0.441406 0.921875 0.441406 1.003906 c -2.261719 0 -3.957032 -0.457031 -5.085938 -1.378906 c -1.089844 -0.964844 -1.632812 -2.535157 -1.632812 -4.710938 c 0 -2.679687 1.089844 -5.273437 3.265625 -7.785156 c 2.21875 -2.554687 5.042969 -4.605469 8.476562 -6.152344 c 3.429688 -1.589843 6.863281 -2.386719 10.296875 -2.386719 c 0.585938 0 1.421875 0.042969 2.511719 0.125 l 0.5625 38.617188 l 13.1875 -38.429688 h 4.394531 l -17.457031 46.777344 h -9.039063 z m 0 0"
     fill="#613583"
     id="path53" />
  <path
     d="m 57.847656 44.734375 c -2.972656 1.128906 -5.273437 2.886719 -6.90625 5.273437 c -1.632812 2.34375 -2.449218 5.230469 -2.449218 8.664063 c 0 1.546875 0.144531 2.636719 0.4375 3.265625 c 0.292968 0.585938 0.441406 0.917969 0.441406 1.003906 c -2.261719 0 -3.957032 -0.460937 -5.085938 -1.382812 c -1.089844 -0.960938 -1.632812 -2.53125 -1.632812 -4.707032 c 0 -2.679687 1.089844 -5.273437 3.265625 -7.785156 c 2.21875 -2.554687 5.042969 -4.605468 8.476562 -6.15625 c 3.429688 -1.589844 6.863281 -2.382812 10.296875 -2.382812 c 0.585938 0 1.421875 0.039062 2.511719 0.125 l 0.5625 38.613281 l 13.1875 -38.425781 h 4.394531 l -17.457031 46.777344 h -9.039063 z m 0 0"
     fill="#813d9c"
     id="path55" />
</svg>
