<?xml version="1.0" encoding="UTF-8"?>
<svg height="128px" viewBox="0 0 128 128" width="128px" xmlns="http://www.w3.org/2000/svg">
    <g fill="#e5a50a">
        <path d="m 22.886719 34.273438 l 9.386719 -9.386719 c 1.472656 -1.472657 3.84375 -1.472657 5.316406 0 l 67.523437 67.523437 c 1.472657 1.472656 1.472657 3.84375 0 5.316406 l -9.386719 9.386719 c -1.472656 1.472657 -3.84375 1.472657 -5.316406 0 l -67.523437 -67.523437 c -1.472657 -1.472656 -1.472657 -3.84375 0 -5.316406 z m 72.839843 -9.386719 l 9.386719 9.390625 c 1.472657 1.472656 1.472657 3.84375 0 5.316406 l -67.523437 67.519531 c -1.472656 1.472657 -3.84375 1.472657 -5.316406 0 l -9.386719 -9.386719 c -1.472657 -1.472656 -1.472657 -3.84375 0 -5.316406 l 67.523437 -67.523437 c 1.472656 -1.472657 3.84375 -1.472657 5.316406 0 z m -83.230468 47.75 v -13.273438 c 0 -2.085937 1.675781 -3.761719 3.757812 -3.761719 h 95.492188 c 2.082031 0 3.757812 1.675782 3.757812 3.761719 v 13.273438 c 0 2.085937 -1.675781 3.761719 -3.757812 3.761719 h -95.492188 c -2.082031 0 -3.757812 -1.675782 -3.757812 -3.761719 z m 44.867187 -58.140625 h 13.273438 c 2.085937 0 3.761719 1.675781 3.761719 3.757812 v 95.492188 c 0 2.082031 -1.675782 3.757812 -3.761719 3.757812 h -13.273438 c -2.085937 0 -3.761719 -1.675781 -3.761719 -3.757812 v -95.492188 c 0 -2.082031 1.675782 -3.757812 3.761719 -3.757812 z m 0 0"/>
        <path d="m 106.21875 92.992188 l -0.011719 2.378906 l -2.675781 0.175781 z m 0 0" fill-opacity="0.999443"/>
        <path d="m 21.789062 93.300781 l -0.003906 1.90625 l 3.398438 -0.492187 z m 0 0" fill-opacity="0.999722"/>
        <path d="m 21.78125 34.976562 l 0.003906 2.066407 l 3.496094 -0.570313 z m 0 0" fill-opacity="0.999722"/>
        <path d="m 106.214844 34.835938 l 0.003906 2.128906 l -2.957031 -1.246094 z m 0 0" fill-opacity="0.999722"/>
    </g>
    <path d="m 22.886719 32.273438 l 9.386719 -9.386719 c 1.472656 -1.472657 3.84375 -1.472657 5.316406 0 l 67.523437 67.523437 c 1.472657 1.472656 1.472657 3.84375 0 5.316406 l -9.386719 9.386719 c -1.472656 1.472657 -3.84375 1.472657 -5.316406 0 l -67.523437 -67.523437 c -1.472657 -1.472656 -1.472657 -3.84375 0 -5.316406 z m 72.839843 -9.386719 l 9.386719 9.390625 c 1.472657 1.472656 1.472657 3.84375 0 5.316406 l -67.523437 67.519531 c -1.472656 1.472657 -3.84375 1.472657 -5.316406 0 l -9.386719 -9.386719 c -1.472657 -1.472656 -1.472657 -3.84375 0 -5.316406 l 67.523437 -67.523437 c 1.472656 -1.472657 3.84375 -1.472657 5.316406 0 z m -83.230468 47.75 v -13.273438 c 0 -2.085937 1.675781 -3.761719 3.757812 -3.761719 h 95.492188 c 2.082031 0 3.757812 1.675782 3.757812 3.761719 v 13.273438 c 0 2.085937 -1.675781 3.761719 -3.757812 3.761719 h -95.492188 c -2.082031 0 -3.757812 -1.675782 -3.757812 -3.761719 z m 44.867187 -58.140625 h 13.273438 c 2.085937 0 3.761719 1.675781 3.761719 3.757812 v 95.492188 c 0 2.082031 -1.675782 3.757812 -3.761719 3.757812 h -13.273438 c -2.085937 0 -3.761719 -1.675781 -3.761719 -3.757812 v -95.492188 c 0 -2.082031 1.675782 -3.757812 3.761719 -3.757812 z m 0 0" fill="#f5c211"/>
    <path d="m 102.363281 64 c 0 21.1875 -17.175781 38.363281 -38.363281 38.363281 s -38.363281 -17.175781 -38.363281 -38.363281 s 17.175781 -38.363281 38.363281 -38.363281 s 38.363281 17.175781 38.363281 38.363281 z m 0 0" fill="#f6d32d"/>
    <path d="m 102.363281 62 c 0 21.1875 -17.175781 38.363281 -38.363281 38.363281 s -38.363281 -17.175781 -38.363281 -38.363281 s 17.175781 -38.363281 38.363281 -38.363281 s 38.363281 17.175781 38.363281 38.363281 z m 0 0" fill="#f8e45c"/>
    <path d="m 57.847656 43.734375 c -2.972656 1.128906 -5.273437 2.886719 -6.90625 5.273437 c -1.632812 2.34375 -2.449218 5.230469 -2.449218 8.664063 c 0 1.550781 0.144531 2.636719 0.4375 3.265625 c 0.292968 0.585938 0.441406 0.921875 0.441406 1.003906 c -2.261719 0 -3.957032 -0.460937 -5.085938 -1.378906 c -1.089844 -0.964844 -1.632812 -2.535156 -1.632812 -4.710938 c 0 -2.679687 1.089844 -5.273437 3.265625 -7.785156 c 2.21875 -2.554687 5.042969 -4.605468 8.476562 -6.152344 c 3.429688 -1.59375 6.863281 -2.386718 10.296875 -2.386718 c 0.585938 0 1.421875 0.042968 2.511719 0.125 l 0.5625 38.613281 l 13.1875 -38.425781 h 4.394531 l -17.453125 46.777344 h -9.042969 z m 0 0" fill="#613583"/>
    <path d="m 85.347656 37.839844 v 2 l -2.285156 0.332031 z m 0 0" fill="#613583"/>
    <path d="m 49.371094 59.941406 v 2 l -3.03125 -2.617187 z m 0 0" fill="#613583"/>
    <path d="m 57.847656 41.734375 c -2.972656 1.128906 -5.273437 2.886719 -6.90625 5.273437 c -1.632812 2.34375 -2.449218 5.230469 -2.449218 8.664063 c 0 1.550781 0.144531 2.636719 0.4375 3.265625 c 0.292968 0.585938 0.441406 0.921875 0.441406 1.003906 c -2.261719 0 -3.957032 -0.460937 -5.085938 -1.378906 c -1.089844 -0.964844 -1.632812 -2.535156 -1.632812 -4.710938 c 0 -2.679687 1.089844 -5.273437 3.265625 -7.785156 c 2.21875 -2.554687 5.042969 -4.605468 8.476562 -6.152344 c 3.429688 -1.59375 6.863281 -2.386718 10.296875 -2.386718 c 0.585938 0 1.421875 0.042968 2.511719 0.125 l 0.5625 38.613281 l 13.1875 -38.425781 h 4.394531 l -17.453125 46.777344 h -9.042969 z m 0 0" fill="#813d9c"/>
</svg>
