<?xml version="1.0" encoding="UTF-8" standalone="no"?>
<svg
   height="128px"
   viewBox="0 0 128 128"
   width="128px"
   version="1.1"
   id="svg90"
   sodipodi:docname="cz.pervoj.valdo-gtk.Devel.svg"
   inkscape:version="1.1 (c68e22c387, 2021-05-23)"
   xmlns:inkscape="http://www.inkscape.org/namespaces/inkscape"
   xmlns:sodipodi="http://sodipodi.sourceforge.net/DTD/sodipodi-0.dtd"
   xmlns="http://www.w3.org/2000/svg"
   xmlns:svg="http://www.w3.org/2000/svg">
  <defs
     id="defs94" />
  <sodipodi:namedview
     id="namedview92"
     pagecolor="#ffffff"
     bordercolor="#666666"
     borderopacity="1.0"
     inkscape:pageshadow="2"
     inkscape:pageopacity="0.0"
     inkscape:pagecheckerboard="0"
     showgrid="false"
     inkscape:zoom="4"
     inkscape:cx="54.625"
     inkscape:cy="61.75"
     inkscape:window-width="1680"
     inkscape:window-height="981"
     inkscape:window-x="0"
     inkscape:window-y="32"
     inkscape:window-maximized="1"
     inkscape:current-layer="svg90" />
  <clipPath
     id="a">
    <rect
       height="128"
       width="128"
       id="rect2" />
  </clipPath>
  <clipPath
     id="b">
    <rect
       height="128"
       width="128"
       id="rect5" />
  </clipPath>
  <filter
     id="c"
     height="1"
     width="1"
     x="0"
     y="0">
    <feColorMatrix
       in="SourceGraphic"
       type="matrix"
       values="0 0 0 0 1 0 0 0 0 1 0 0 0 0 1 0 0 0 1 0"
       id="feColorMatrix8" />
  </filter>
  <mask
     id="d">
    <g
       clip-path="url(#b)"
       filter="url(#c)"
       id="g37">
      <g
         clip-path="url(#a)"
         id="g35">
        <path
           d="m 22.886719 34.273438 l 9.386719 -9.386719 c 1.472656 -1.472657 3.84375 -1.472657 5.316406 0 l 67.523437 67.523437 c 1.472657 1.472656 1.472657 3.84375 0 5.316406 l -9.386719 9.386719 c -1.472656 1.472657 -3.84375 1.472657 -5.316406 0 l -67.523437 -67.523437 c -1.472657 -1.472656 -1.472657 -3.84375 0 -5.316406 z m 72.839843 -9.386719 l 9.386719 9.390625 c 1.472657 1.472656 1.472657 3.84375 0 5.316406 l -67.523437 67.519531 c -1.472656 1.472657 -3.84375 1.472657 -5.316406 0 l -9.386719 -9.386719 c -1.472657 -1.472656 -1.472657 -3.84375 0 -5.316406 l 67.523437 -67.523437 c 1.472656 -1.472657 3.84375 -1.472657 5.316406 0 z m -83.230468 47.75 v -13.273438 c 0 -2.085937 1.675781 -3.761719 3.757812 -3.761719 h 95.492188 c 2.082031 0 3.757812 1.675782 3.757812 3.761719 v 13.273438 c 0 2.085937 -1.675781 3.761719 -3.757812 3.761719 h -95.492188 c -2.082031 0 -3.757812 -1.675782 -3.757812 -3.761719 z m 44.867187 -58.140625 h 13.273438 c 2.085937 0 3.761719 1.675781 3.761719 3.757812 v 95.492188 c 0 2.082031 -1.675782 3.757812 -3.761719 3.757812 h -13.273438 c -2.085937 0 -3.761719 -1.675781 -3.761719 -3.757812 v -95.492188 c 0 -2.082031 1.675782 -3.757812 3.761719 -3.757812 z m 0 0"
           fill="#e5a50a"
           id="path11" />
        <path
           d="m 106.21875 92.992188 l -0.011719 2.378906 l -2.675781 0.175781 z m 0 0"
           fill="#e5a50a"
           fill-opacity="0.999443"
           id="path13" />
        <path
           d="m 21.789062 93.300781 l -0.003906 1.90625 l 3.398438 -0.492187 z m 0 0"
           fill="#e5a50a"
           fill-opacity="0.999722"
           id="path15" />
        <path
           d="m 21.78125 34.976562 l 0.003906 2.066407 l 3.496094 -0.570313 z m 0 0"
           fill="#e5a50a"
           fill-opacity="0.999722"
           id="path17" />
        <path
           d="m 106.214844 34.835938 l 0.003906 2.128906 l -2.957031 -1.246094 z m 0 0"
           fill="#e5a50a"
           fill-opacity="0.999722"
           id="path19" />
        <path
           d="m 22.886719 32.273438 l 9.386719 -9.386719 c 1.472656 -1.472657 3.84375 -1.472657 5.316406 0 l 67.523437 67.523437 c 1.472657 1.472656 1.472657 3.84375 0 5.316406 l -9.386719 9.386719 c -1.472656 1.472657 -3.84375 1.472657 -5.316406 0 l -67.523437 -67.523437 c -1.472657 -1.472656 -1.472657 -3.84375 0 -5.316406 z m 72.839843 -9.386719 l 9.386719 9.390625 c 1.472657 1.472656 1.472657 3.84375 0 5.316406 l -67.523437 67.519531 c -1.472656 1.472657 -3.84375 1.472657 -5.316406 0 l -9.386719 -9.386719 c -1.472657 -1.472656 -1.472657 -3.84375 0 -5.316406 l 67.523437 -67.523437 c 1.472656 -1.472657 3.84375 -1.472657 5.316406 0 z m -83.230468 47.75 v -13.273438 c 0 -2.085937 1.675781 -3.761719 3.757812 -3.761719 h 95.492188 c 2.082031 0 3.757812 1.675782 3.757812 3.761719 v 13.273438 c 0 2.085937 -1.675781 3.761719 -3.757812 3.761719 h -95.492188 c -2.082031 0 -3.757812 -1.675782 -3.757812 -3.761719 z m 44.867187 -58.140625 h 13.273438 c 2.085937 0 3.761719 1.675781 3.761719 3.757812 v 95.492188 c 0 2.082031 -1.675782 3.757812 -3.761719 3.757812 h -13.273438 c -2.085937 0 -3.761719 -1.675781 -3.761719 -3.757812 v -95.492188 c 0 -2.082031 1.675782 -3.757812 3.761719 -3.757812 z m 0 0"
           fill="#f5c211"
           id="path21" />
        <path
           d="m 102.363281 64 c 0 21.1875 -17.175781 38.363281 -38.363281 38.363281 s -38.363281 -17.175781 -38.363281 -38.363281 s 17.175781 -38.363281 38.363281 -38.363281 s 38.363281 17.175781 38.363281 38.363281 z m 0 0"
           fill="#f6d32d"
           id="path23" />
        <path
           d="m 102.363281 62 c 0 21.1875 -17.175781 38.363281 -38.363281 38.363281 s -38.363281 -17.175781 -38.363281 -38.363281 s 17.175781 -38.363281 38.363281 -38.363281 s 38.363281 17.175781 38.363281 38.363281 z m 0 0"
           fill="#f8e45c"
           id="path25" />
        <path
           d="m 57.847656 43.734375 c -2.972656 1.128906 -5.273437 2.886719 -6.90625 5.273437 c -1.632812 2.34375 -2.449218 5.230469 -2.449218 8.664063 c 0 1.550781 0.144531 2.636719 0.4375 3.265625 c 0.292968 0.585938 0.441406 0.921875 0.441406 1.003906 c -2.261719 0 -3.957032 -0.460937 -5.085938 -1.378906 c -1.089844 -0.964844 -1.632812 -2.535156 -1.632812 -4.710938 c 0 -2.679687 1.089844 -5.273437 3.265625 -7.785156 c 2.21875 -2.554687 5.042969 -4.605468 8.476562 -6.152344 c 3.429688 -1.59375 6.863281 -2.386718 10.296875 -2.386718 c 0.585938 0 1.421875 0.042968 2.511719 0.125 l 0.5625 38.613281 l 13.1875 -38.425781 h 4.394531 l -17.453125 46.777344 h -9.042969 z m 0 0"
           fill="#613583"
           id="path27" />
        <path
           d="m 85.347656 37.839844 v 2 l -2.285156 0.332031 z m 0 0"
           fill="#613583"
           id="path29" />
        <path
           d="m 49.371094 59.941406 v 2 l -3.03125 -2.617187 z m 0 0"
           fill="#613583"
           id="path31" />
        <path
           d="m 57.847656 41.734375 c -2.972656 1.128906 -5.273437 2.886719 -6.90625 5.273437 c -1.632812 2.34375 -2.449218 5.230469 -2.449218 8.664063 c 0 1.550781 0.144531 2.636719 0.4375 3.265625 c 0.292968 0.585938 0.441406 0.921875 0.441406 1.003906 c -2.261719 0 -3.957032 -0.460937 -5.085938 -1.378906 c -1.089844 -0.964844 -1.632812 -2.535156 -1.632812 -4.710938 c 0 -2.679687 1.089844 -5.273437 3.265625 -7.785156 c 2.21875 -2.554687 5.042969 -4.605468 8.476562 -6.152344 c 3.429688 -1.59375 6.863281 -2.386718 10.296875 -2.386718 c 0.585938 0 1.421875 0.042968 2.511719 0.125 l 0.5625 38.613281 l 13.1875 -38.425781 h 4.394531 l -17.453125 46.777344 h -9.042969 z m 0 0"
           fill="#813d9c"
           id="path33" />
      </g>
    </g>
  </mask>
  <mask
     id="e">
    <g
       filter="url(#c)"
       id="g42">
      <rect
         fill-opacity="0.8"
         height="128"
         width="128"
         id="rect40" />
    </g>
  </mask>
  <linearGradient
     id="f"
     gradientTransform="matrix(0 0.37 -0.98462 0 295.38501 -30.360001)"
     gradientUnits="userSpaceOnUse"
     x1="300"
     x2="428"
     y1="235"
     y2="235">
    <stop
       offset="0"
       stop-color="#f9f06b"
       id="stop45" />
    <stop
       offset="1"
       stop-color="#f5c211"
       id="stop47" />
  </linearGradient>
  <clipPath
     id="g">
    <rect
       height="128"
       width="128"
       id="rect50" />
  </clipPath>
  <clipPath
     id="h">
    <rect
       height="128"
       width="128"
       id="rect53" />
  </clipPath>
  <g
     fill="#e5a50a"
     id="g66">
    <path
       d="m 22.886719 34.273438 l 9.386719 -9.386719 c 1.472656 -1.472657 3.84375 -1.472657 5.316406 0 l 67.523437 67.523437 c 1.472657 1.472656 1.472657 3.84375 0 5.316406 l -9.386719 9.386719 c -1.472656 1.472657 -3.84375 1.472657 -5.316406 0 l -67.523437 -67.523437 c -1.472657 -1.472656 -1.472657 -3.84375 0 -5.316406 z m 72.839843 -9.386719 l 9.386719 9.390625 c 1.472657 1.472656 1.472657 3.84375 0 5.316406 l -67.523437 67.519531 c -1.472656 1.472657 -3.84375 1.472657 -5.316406 0 l -9.386719 -9.386719 c -1.472657 -1.472656 -1.472657 -3.84375 0 -5.316406 l 67.523437 -67.523437 c 1.472656 -1.472657 3.84375 -1.472657 5.316406 0 z m -83.230468 47.75 v -13.273438 c 0 -2.085937 1.675781 -3.761719 3.757812 -3.761719 h 95.492188 c 2.082031 0 3.757812 1.675782 3.757812 3.761719 v 13.273438 c 0 2.085937 -1.675781 3.761719 -3.757812 3.761719 h -95.492188 c -2.082031 0 -3.757812 -1.675782 -3.757812 -3.761719 z m 44.867187 -58.140625 h 13.273438 c 2.085937 0 3.761719 1.675781 3.761719 3.757812 v 95.492188 c 0 2.082031 -1.675782 3.757812 -3.761719 3.757812 h -13.273438 c -2.085937 0 -3.761719 -1.675781 -3.761719 -3.757812 v -95.492188 c 0 -2.082031 1.675782 -3.757812 3.761719 -3.757812 z m 0 0"
       id="path56" />
    <path
       d="m 106.21875 92.992188 l -0.011719 2.378906 l -2.675781 0.175781 z m 0 0"
       fill-opacity="0.999443"
       id="path58" />
    <path
       d="m 21.789062 93.300781 l -0.003906 1.90625 l 3.398438 -0.492187 z m 0 0"
       fill-opacity="0.999722"
       id="path60" />
    <path
       d="m 21.78125 34.976562 l 0.003906 2.066407 l 3.496094 -0.570313 z m 0 0"
       fill-opacity="0.999722"
       id="path62" />
    <path
       d="m 106.214844 34.835938 l 0.003906 2.128906 l -2.957031 -1.246094 z m 0 0"
       fill-opacity="0.999722"
       id="path64" />
  </g>
  <path
     d="m 22.886719 32.273438 l 9.386719 -9.386719 c 1.472656 -1.472657 3.84375 -1.472657 5.316406 0 l 67.523437 67.523437 c 1.472657 1.472656 1.472657 3.84375 0 5.316406 l -9.386719 9.386719 c -1.472656 1.472657 -3.84375 1.472657 -5.316406 0 l -67.523437 -67.523437 c -1.472657 -1.472656 -1.472657 -3.84375 0 -5.316406 z m 72.839843 -9.386719 l 9.386719 9.390625 c 1.472657 1.472656 1.472657 3.84375 0 5.316406 l -67.523437 67.519531 c -1.472656 1.472657 -3.84375 1.472657 -5.316406 0 l -9.386719 -9.386719 c -1.472657 -1.472656 -1.472657 -3.84375 0 -5.316406 l 67.523437 -67.523437 c 1.472656 -1.472657 3.84375 -1.472657 5.316406 0 z m -83.230468 47.75 v -13.273438 c 0 -2.085937 1.675781 -3.761719 3.757812 -3.761719 h 95.492188 c 2.082031 0 3.757812 1.675782 3.757812 3.761719 v 13.273438 c 0 2.085937 -1.675781 3.761719 -3.757812 3.761719 h -95.492188 c -2.082031 0 -3.757812 -1.675782 -3.757812 -3.761719 z m 44.867187 -58.140625 h 13.273438 c 2.085937 0 3.761719 1.675781 3.761719 3.757812 v 95.492188 c 0 2.082031 -1.675782 3.757812 -3.761719 3.757812 h -13.273438 c -2.085937 0 -3.761719 -1.675781 -3.761719 -3.757812 v -95.492188 c 0 -2.082031 1.675782 -3.757812 3.761719 -3.757812 z m 0 0"
     fill="#f5c211"
     id="path68" />
  <path
     d="m 102.363281 64 c 0 21.1875 -17.175781 38.363281 -38.363281 38.363281 s -38.363281 -17.175781 -38.363281 -38.363281 s 17.175781 -38.363281 38.363281 -38.363281 s 38.363281 17.175781 38.363281 38.363281 z m 0 0"
     fill="#f6d32d"
     id="path70" />
  <path
     d="m 102.363281 62 c 0 21.1875 -17.175781 38.363281 -38.363281 38.363281 s -38.363281 -17.175781 -38.363281 -38.363281 s 17.175781 -38.363281 38.363281 -38.363281 s 38.363281 17.175781 38.363281 38.363281 z m 0 0"
     fill="#f8e45c"
     id="path72" />
  <g
     clip-path="url(#h)"
     mask="url(#d)"
     id="g88">
    <g
       clip-path="url(#g)"
       mask="url(#e)"
       id="g86">
      <path
         d="m 128 80.640625 v 47.359375 h -128 v -47.359375 z m 0 0"
         fill="url(#f)"
         id="path82" />
      <path
         d="m 13.308594 80.640625 l 47.355468 47.359375 h 21.214844 l -47.359375 -47.359375 z m 42.421875 0 l 47.363281 47.359375 h 21.214844 l -47.363282 -47.359375 z m 42.429687 0 l 29.839844 29.839844 v -21.210938 l -8.628906 -8.628906 z m -98.160156 7.90625 v 21.214844 l 18.238281 18.238281 h 21.214844 z m 0 0"
         id="path84" />
    </g>
  </g>
  <path
     d="m 57.847656 43.734375 c -2.972656 1.128906 -5.273437 2.886719 -6.90625 5.273437 c -1.632812 2.34375 -2.449218 5.230469 -2.449218 8.664063 c 0 1.550781 0.144531 2.636719 0.4375 3.265625 c 0.292968 0.585938 0.441406 0.921875 0.441406 1.003906 c -2.261719 0 -3.957032 -0.460937 -5.085938 -1.378906 c -1.089844 -0.964844 -1.632812 -2.535156 -1.632812 -4.710938 c 0 -2.679687 1.089844 -5.273437 3.265625 -7.785156 c 2.21875 -2.554687 5.042969 -4.605468 8.476562 -6.152344 c 3.429688 -1.59375 6.863281 -2.386718 10.296875 -2.386718 c 0.585938 0 1.421875 0.042968 2.511719 0.125 l 0.5625 38.613281 l 13.1875 -38.425781 h 4.394531 l -17.453125 46.777344 h -9.042969 z m 0 0"
     fill="#613583"
     id="path74" />
  <path
     d="m 85.347656 37.839844 v 2 l -2.285156 0.332031 z m 0 0"
     fill="#613583"
     id="path76" />
  <path
     d="m 49.371094 59.941406 v 2 l -3.03125 -2.617187 z m 0 0"
     fill="#613583"
     id="path78" />
  <path
     d="m 57.847656 41.734375 c -2.972656 1.128906 -5.273437 2.886719 -6.90625 5.273437 c -1.632812 2.34375 -2.449218 5.230469 -2.449218 8.664063 c 0 1.550781 0.144531 2.636719 0.4375 3.265625 c 0.292968 0.585938 0.441406 0.921875 0.441406 1.003906 c -2.261719 0 -3.957032 -0.460937 -5.085938 -1.378906 c -1.089844 -0.964844 -1.632812 -2.535156 -1.632812 -4.710938 c 0 -2.679687 1.089844 -5.273437 3.265625 -7.785156 c 2.21875 -2.554687 5.042969 -4.605468 8.476562 -6.152344 c 3.429688 -1.59375 6.863281 -2.386718 10.296875 -2.386718 c 0.585938 0 1.421875 0.042968 2.511719 0.125 l 0.5625 38.613281 l 13.1875 -38.425781 h 4.394531 l -17.453125 46.777344 h -9.042969 z m 0 0"
     fill="#813d9c"
     id="path80" />
</svg>
