<?xml version="1.0" encoding="UTF-8"?>
<svg height="128px" viewBox="0 0 128 128" width="128px" xmlns="http://www.w3.org/2000/svg" xmlns:xlink="http://www.w3.org/1999/xlink">
    <radialGradient id="a" cx="64.868744" cy="38.506882" gradientUnits="userSpaceOnUse" r="38.363373">
        <stop offset="0" stop-color="#f9f06b"/>
        <stop offset="1" stop-color="#f6d32d"/>
    </radialGradient>
    <path d="m 22.886719 32.273438 l 9.386719 -9.386719 c 1.472656 -1.472657 3.84375 -1.472657 5.316406 0 l 67.523437 67.523437 c 1.472657 1.472656 1.472657 3.84375 0 5.316406 l -9.386719 9.386719 c -1.472656 1.472657 -3.84375 1.472657 -5.316406 0 l -67.523437 -67.523437 c -1.472657 -1.472656 -1.472657 -3.84375 0 -5.316406 z m 72.839843 -9.386719 l 9.386719 9.390625 c 1.472657 1.472656 1.472657 3.84375 0 5.316406 l -67.523437 67.519531 c -1.472656 1.472657 -3.84375 1.472657 -5.316406 0 l -9.386719 -9.386719 c -1.472657 -1.472656 -1.472657 -3.84375 0 -5.316406 l 67.523437 -67.523437 c 1.472656 -1.472657 3.84375 -1.472657 5.316406 0 z m -83.230468 47.75 v -13.273438 c 0 -2.085937 1.675781 -3.761719 3.757812 -3.761719 h 95.492188 c 2.082031 0 3.757812 1.675782 3.757812 3.761719 v 13.273438 c 0 2.085937 -1.675781 3.761719 -3.757812 3.761719 h -95.492188 c -2.082031 0 -3.757812 -1.675782 -3.757812 -3.761719 z m 44.867187 -58.140625 h 13.273438 c 2.085937 0 3.761719 1.675781 3.761719 3.757812 v 95.492188 c 0 2.082031 -1.675782 3.757812 -3.761719 3.757812 h -13.273438 c -2.085937 0 -3.761719 -1.675781 -3.761719 -3.757812 v -95.492188 c 0 -2.082031 1.675782 -3.757812 3.761719 -3.757812 z m 0 0" fill="#f5c211"/>
    <path d="m 102.363281 64 c 0 21.1875 -17.175781 38.363281 -38.363281 38.363281 s -38.363281 -17.175781 -38.363281 -38.363281 s 17.175781 -38.363281 38.363281 -38.363281 s 38.363281 17.175781 38.363281 38.363281 z m 0 0" fill="url(#a)"/>
    <path d="m 57.847656 48.734375 c -2.972656 1.128906 -5.273437 2.886719 -6.90625 5.273437 c -1.632812 2.34375 -2.449218 5.230469 -2.449218 8.664063 c 0 1.546875 0.144531 2.636719 0.4375 3.265625 c 0.292968 0.585938 0.441406 0.917969 0.441406 1.003906 c -2.261719 0 -3.957032 -0.460937 -5.085938 -1.382812 c -1.089844 -0.960938 -1.632812 -2.53125 -1.632812 -4.707032 c 0 -2.679687 1.089844 -5.273437 3.265625 -7.785156 c 2.21875 -2.554687 5.042969 -4.605468 8.476562 -6.15625 c 3.429688 -1.589844 6.863281 -2.382812 10.296875 -2.382812 c 0.585938 0 1.421875 0.039062 2.511719 0.125 l 0.5625 38.613281 l 13.1875 -38.425781 h 4.394531 l -17.457031 46.777344 h -9.039063 z m 0 0" fill-opacity="0.197474"/>
    <path d="m 49.371094 62.941406 v 1.855469 l -3.445313 -2.679687 z m 35.976562 -22.101562 v 1.855468 l -1.660156 0.511719 z m -27.5 5.75 c -2.972656 1.128906 -5.273437 2.886718 -6.90625 5.273437 c -1.632812 2.34375 -2.449218 5.234375 -2.449218 8.664063 c 0 1.550781 0.144531 2.636718 0.4375 3.265625 c 0.292968 0.585937 0.441406 0.921875 0.441406 1.003906 c -2.261719 0 -3.957032 -0.457031 -5.085938 -1.378906 c -1.089844 -0.964844 -1.632812 -2.535157 -1.632812 -4.710938 c 0 -2.679687 1.089844 -5.273437 3.265625 -7.785156 c 2.21875 -2.554687 5.042969 -4.605469 8.476562 -6.152344 c 3.429688 -1.589843 6.863281 -2.386719 10.296875 -2.386719 c 0.585938 0 1.421875 0.042969 2.511719 0.125 l 0.5625 38.617188 l 13.1875 -38.429688 h 4.394531 l -17.457031 46.777344 h -9.039063 z m 0 0" fill="#613583"/>
    <path d="m 57.847656 44.734375 c -2.972656 1.128906 -5.273437 2.886719 -6.90625 5.273437 c -1.632812 2.34375 -2.449218 5.230469 -2.449218 8.664063 c 0 1.546875 0.144531 2.636719 0.4375 3.265625 c 0.292968 0.585938 0.441406 0.917969 0.441406 1.003906 c -2.261719 0 -3.957032 -0.460937 -5.085938 -1.382812 c -1.089844 -0.960938 -1.632812 -2.53125 -1.632812 -4.707032 c 0 -2.679687 1.089844 -5.273437 3.265625 -7.785156 c 2.21875 -2.554687 5.042969 -4.605468 8.476562 -6.15625 c 3.429688 -1.589844 6.863281 -2.382812 10.296875 -2.382812 c 0.585938 0 1.421875 0.039062 2.511719 0.125 l 0.5625 38.613281 l 13.1875 -38.425781 h 4.394531 l -17.457031 46.777344 h -9.039063 z m 0 0" fill="#813d9c"/>
</svg>
